<svg version="1.1" viewBox="0.0 0.0 934.0 577.0" fill="none" stroke="none" stroke-linecap="square" stroke-miterlimit="10" width="934" height="577" xmlns:xlink="http://www.w3.org/1999/xlink" xmlns="http://www.w3.org/2000/svg"><path fill="#ffffff" d="M0 0L934.0 0L934.0 577.0L0 577.0L0 0Z" fill-rule="nonzero"/><path fill="#2e5dab" d="M427.73013 218.69354C459.61557 218.69354 486.52155 235.29811 490.51785 257.44193L490.51785 295.41397C486.52155 273.27017 459.61557 256.6656 427.73013 256.6656Z" fill-rule="nonzero"/><path fill="#4285f4" d="M427.73013 85.79136C555.27185 85.79136 662.8958 152.20964 678.881 240.78485L490.51785 257.44193C486.52155 235.29811 459.61557 218.69354 427.73013 218.69354Z" fill-rule="nonzero"/><path fill="#ab7e00" d="M278.93405 444.32648C213.37646 410.98523 174.58311 357.68985 174.58311 300.9663L174.58311 262.99426C174.58311 319.7178 213.37646 373.01318 278.93405 406.35443Z" fill-rule="nonzero"/><path fill="#ab7e00" d="M364.4434 262.99426C364.4434 238.52765 392.77783 218.69354 427.73013 218.69354L427.73013 256.6656C392.77783 256.6656 364.4434 276.4997 364.4434 300.9663Z" fill-rule="nonzero"/><path fill="#f4b400" d="M278.93405 406.35443C190.20921 361.23077 153.08315 281.24716 186.97302 208.23555C220.86288 135.22394 318.0602 85.79136 427.73013 85.79136L427.73013 218.69354C400.31265 218.69354 376.01334 231.05168 367.54086 249.3046C359.0684 267.5575 368.3499 287.5534 390.5311 298.83432Z" fill-rule="nonzero"/><path fill="#993027" d="M680.87714 300.9663C680.87714 367.6015 627.4742 428.60352 542.6565 458.85526C457.83878 489.107 355.9469 483.49365 278.93405 444.32648L278.93405 406.35443C355.9469 445.5216 457.83878 451.13495 542.6565 420.8832C627.4742 390.63147 680.87714 329.62946 680.87714 262.99426Z" fill-rule="nonzero"/><path fill="#993027" d="M490.51785 257.44193C490.85022 259.28354 491.01688 261.138 491.01688 262.99426L491.01688 300.9663C491.01688 299.11005 490.85022 297.2556 490.51785 295.41397Z" fill-rule="nonzero"/><path fill="#db4437" d="M678.881 240.78485C691.5325 310.88754 643.478 379.55145 556.59247 415.52026C469.70685 451.48907 360.5984 447.88727 278.93405 406.35443L390.5311 298.83432C410.9472 309.21753 438.2243 310.11795 459.9457 301.12576C481.6671 292.13358 493.68073 274.9676 490.51785 257.44193Z" fill-rule="nonzero"/><path fill="#757575" d="M30.595291 202.4735L30.595291 181.00475L35.90779 181.00475L39.09529 195.64537L42.267166 181.00475L47.59529 181.00475L47.59529 202.4735L44.298416 202.4735L44.298416 185.56725L40.798416 202.4735L37.37654 202.4735L33.892166 185.56725L33.892166 202.4735L30.595291 202.4735ZM54.142166 191.661L51.079666 190.98912Q51.62654 188.62975 52.90779 187.5985Q54.18904 186.56725 56.59529 186.56725Q58.735916 186.56725 59.860916 187.17662Q60.985916 187.77037 61.47029 188.80162Q61.954666 189.83287 61.954666 192.55162L61.923416 197.36412Q61.923416 199.37975 62.079666 200.37975Q62.25154 201.36412 62.68904 202.4735L59.34529 202.4735L58.90779 200.77037Q58.048416 201.80162 57.048416 202.31725Q56.06404 202.83287 54.954666 202.83287Q53.09529 202.83287 51.90779 201.58287Q50.72029 200.31725 50.72029 198.23912Q50.72029 196.92662 51.204666 195.94225Q51.68904 194.95787 52.56404 194.37975Q53.454666 193.786 55.37654 193.33287Q57.72029 192.786 58.642166 192.31725Q58.642166 191.036 58.454666 190.62975Q58.28279 190.2235 57.78279 189.9735Q57.298416 189.70787 56.40779 189.70787Q55.50154 189.70787 54.97029 190.12975Q54.454666 190.536 54.142166 191.661ZM58.642166 195.00475Q58.00154 195.27037 56.642166 195.61412Q55.079666 196.02037 54.59529 196.52037Q54.110916 197.02037 54.110916 197.81725Q54.110916 198.70787 54.642166 199.31725Q55.173416 199.92662 55.985916 199.92662Q56.704666 199.92662 57.40779 199.44225Q58.110916 198.94225 58.37654 198.27037Q58.642166 197.5985 58.642166 195.81725L58.642166 195.00475ZM64.00154 186.911L67.610916 186.911L70.642166 197.95787L73.62654 186.911L77.110916 186.911L72.62654 201.87975L71.75154 204.80162Q71.18904 206.44225 70.62654 207.20787Q70.06404 207.9735 69.18904 208.37975Q68.31404 208.786 67.03279 208.786Q66.06404 208.786 65.12654 208.536L64.829666 205.31725Q65.610916 205.50475 66.25154 205.50475Q67.22029 205.50475 67.829666 204.86412Q68.454666 204.2235 68.860916 202.52037L64.00154 186.911ZM79.454666 202.4735L79.454666 181.00475L82.84529 181.00475L82.84529 188.73912Q83.610916 187.64537 84.53279 187.11412Q85.47029 186.56725 86.548416 186.56725Q88.798416 186.56725 90.360916 188.5985Q91.923416 190.62975 91.923416 194.61412Q91.923416 198.56725 90.329666 200.70787Q88.735916 202.83287 86.579666 202.83287Q85.47029 202.83287 84.40779 202.161Q83.34529 201.4735 82.59529 200.19225L82.59529 202.4735L79.454666 202.4735ZM82.81404 194.36412Q82.81404 196.36412 83.18904 197.42662Q83.579666 198.4735 84.28279 199.02037Q84.985916 199.56725 85.75154 199.56725Q86.87654 199.56725 87.65779 198.411Q88.454666 197.23912 88.454666 194.7235Q88.454666 192.06725 87.65779 190.89537Q86.860916 189.70787 85.62654 189.70787Q84.454666 189.70787 83.62654 190.86412Q82.81404 192.00475 82.81404 194.36412ZM102.017166 197.52037L105.37654 198.20787Q104.68904 200.55162 103.267166 201.69225Q101.860916 202.83287 99.81404 202.83287Q96.985916 202.83287 95.454666 200.94225Q93.642166 198.73912 93.642166 194.786Q93.642166 190.87975 95.47029 188.536Q97.017166 186.56725 99.485916 186.56725Q102.22029 186.56725 103.767166 188.58287Q105.56404 190.89537 105.56404 195.411L105.548416 195.87975L97.09529 195.87975Q97.12654 197.7235 97.923416 198.73912Q98.72029 199.75475 99.84529 199.75475Q101.47029 199.75475 102.017166 197.52037ZM102.204666 193.36412Q102.15779 191.55162 101.423416 190.62975Q100.704666 189.70787 99.68904 189.70787Q98.610916 189.70787 97.892166 190.661Q97.142166 191.62975 97.15779 193.36412L102.204666 193.36412Z" fill-rule="nonzero"/><path fill="#9e9e9e" d="M36.50154 241.4735L36.50154 237.14537L29.298416 237.14537L29.298416 233.55162L36.93904 219.911L39.767166 219.911L39.767166 233.536L41.954666 233.536L41.954666 237.14537L39.767166 237.14537L39.767166 241.4735L36.50154 241.4735ZM36.50154 233.536L36.50154 226.19225L32.47029 233.536L36.50154 233.536ZM49.59529 219.911Q52.15779 219.911 53.735916 222.3485Q55.329666 224.786 55.329666 230.87975Q55.329666 236.95787 53.735916 239.39537Q52.15779 241.83287 49.610916 241.83287Q47.048416 241.83287 45.47029 239.42662Q43.892166 237.00475 43.892166 230.83287Q43.892166 224.786 45.47029 222.3485Q47.048416 219.911 49.59529 219.911ZM49.59529 223.31725Q48.59529 223.31725 48.00154 224.64537Q47.423416 225.95787 47.423416 230.87975Q47.423416 235.80162 48.00154 237.11412Q48.59529 238.42662 49.59529 238.42662Q50.610916 238.42662 51.18904 237.11412Q51.78279 235.786 51.78279 230.87975Q51.78279 225.95787 51.18904 224.64537Q50.610916 223.31725 49.59529 223.31725ZM58.610916 241.4735L58.610916 237.36412L62.00154 237.36412L62.00154 241.4735L58.610916 241.4735ZM70.59529 219.911Q73.15779 219.911 74.735916 222.3485Q76.329666 224.786 76.329666 230.87975Q76.329666 236.95787 74.735916 239.39537Q73.15779 241.83287 70.610916 241.83287Q68.048416 241.83287 66.47029 239.42662Q64.892166 237.00475 64.892166 230.83287Q64.892166 224.786 66.47029 222.3485Q68.048416 219.911 70.59529 219.911ZM70.59529 223.31725Q69.59529 223.31725 69.00154 224.64537Q68.423416 225.95787 68.423416 230.87975Q68.423416 235.80162 69.00154 237.11412Q69.59529 238.42662 70.59529 238.42662Q71.610916 238.42662 72.18904 237.11412Q72.78279 235.786 72.78279 230.87975Q72.78279 225.95787 72.18904 224.64537Q71.610916 223.31725 70.59529 223.31725ZM78.90779 225.30162Q78.90779 222.36412 79.954666 221.00475Q81.017166 219.62975 82.767166 219.62975Q84.56404 219.62975 85.610916 221.00475Q86.673416 222.36412 86.673416 225.30162Q86.673416 228.23912 85.610916 229.61412Q84.56404 230.9735 82.829666 230.9735Q81.03279 230.9735 79.97029 229.61412Q78.90779 228.25475 78.90779 225.30162ZM81.548416 225.27037Q81.548416 227.31725 81.87654 227.9735Q82.22029 228.61412 82.767166 228.61412Q83.329666 228.61412 83.65779 227.9735Q84.00154 227.31725 84.00154 225.27037Q84.00154 223.2235 83.65779 222.58287Q83.329666 221.92662 82.78279 221.92662Q82.22029 221.92662 81.87654 222.58287Q81.548416 223.2235 81.548416 225.27037ZM85.34529 242.30162L82.84529 242.30162L92.235916 219.62975L94.642166 219.62975L85.34529 242.30162ZM90.798416 236.661Q90.798416 233.70787 91.860916 232.3485Q92.923416 230.98912 94.673416 230.98912Q96.454666 230.98912 97.50154 232.3485Q98.56404 233.70787 98.56404 236.661Q98.56404 239.5985 97.50154 240.9735Q96.454666 242.33287 94.704666 242.33287Q92.923416 242.33287 91.860916 240.9735Q90.798416 239.61412 90.798416 236.661ZM93.43904 236.64537Q93.43904 238.69225 93.767166 239.33287Q94.09529 239.9735 94.642166 239.9735Q95.204666 239.9735 95.53279 239.33287Q95.87654 238.69225 95.87654 236.64537Q95.87654 234.58287 95.53279 233.94225Q95.204666 233.30162 94.65779 233.30162Q94.09529 233.30162 93.767166 233.94225Q93.43904 234.58287 93.43904 236.64537Z" fill-rule="nonzero"/><path stroke="#757575" stroke-width="1.0" stroke-linecap="butt" d="M28.845291 210.9735L168.58311 210.9735L199.01088 210.9735" fill-rule="nonzero"/><path fill="#9e9e9e" d="M201.01088 210.9735C201.01088 209.86893 200.11545 208.9735 199.01088 208.9735C197.90631 208.9735 197.01088 209.86893 197.01088 210.9735C197.01088 212.07806 197.90631 212.9735 199.01088 212.9735C200.11545 212.9735 201.01088 212.07806 201.01088 210.9735" fill-rule="nonzero"/><path fill="#757575" d="M789.03687 128.21849L789.03687 119.18724L782.58374 106.74974L786.74 106.74974L790.89624 115.234116L794.95874 106.74974L799.0525 106.74974L792.58374 119.202866L792.58374 128.21849L789.03687 128.21849ZM807.78687 123.265366L811.14624 123.952866Q810.45874 126.296616 809.03687 127.43724Q807.6306 128.57787 805.58374 128.57787Q802.7556 128.57787 801.22437 126.68724Q799.41187 124.484116 799.41187 120.53099Q799.41187 116.62474 801.24 114.28099Q802.78687 112.31224 805.2556 112.31224Q807.99 112.31224 809.53687 114.327866Q811.33374 116.640366 811.33374 121.15599L811.3181 121.62474L802.865 121.62474Q802.89624 123.46849 803.6931 124.484116Q804.49 125.49974 805.615 125.49974Q807.24 125.49974 807.78687 123.265366ZM807.97437 119.109116Q807.9275 117.296616 807.1931 116.37474Q806.47437 115.452866 805.45874 115.452866Q804.3806 115.452866 803.66187 116.40599Q802.91187 117.37474 802.9275 119.109116L807.97437 119.109116ZM813.20874 123.78099L816.58374 123.15599Q817.02124 125.59349 819.3025 125.59349Q820.52124 125.59349 821.115 125.12474Q821.72437 124.65599 821.72437 123.90599Q821.72437 123.40599 821.45874 123.109116Q821.1775 122.81224 820.365 122.59349Q816.20874 121.49974 815.08374 120.49974Q813.6775 119.24974 813.6775 117.077866Q813.6775 114.921616 815.0525 113.62474Q816.4275 112.31224 819.0525 112.31224Q821.5525 112.31224 822.84937 113.296616Q824.16187 114.265366 824.6931 116.421616L821.5056 117.140366Q821.08374 115.265366 819.09937 115.265366Q817.865 115.265366 817.33374 115.62474Q816.8025 115.984116 816.8025 116.56224Q816.8025 117.077866 817.28687 117.40599Q817.77124 117.765366 820.28687 118.46849Q823.115 119.24974 824.1306 120.37474Q825.1306 121.515366 825.1306 123.390366Q825.1306 125.640366 823.58374 127.109116Q822.03687 128.57787 819.3025 128.57787Q816.83374 128.57787 815.2556 127.359116Q813.6931 126.12474 813.20874 123.78099Z" fill-rule="nonzero"/><path fill="#9e9e9e" d="M768.0681 163.39037L768.0681 167.21849L756.22437 167.21849Q756.4275 165.04662 757.39624 163.09349Q758.365 161.14037 761.1775 157.95287Q763.41187 155.42162 763.9275 154.53099Q764.6775 153.23412 764.6775 151.90599Q764.6775 150.49974 764.0525 149.78099Q763.4275 149.06224 762.39624 149.06224Q760.16187 149.06224 759.97437 152.42162L756.6306 152.01537Q756.9275 148.73412 758.4431 147.20287Q759.95874 145.65599 762.49 145.65599Q765.2556 145.65599 766.66187 147.46849Q768.0681 149.26537 768.0681 151.59349Q768.0681 152.90599 767.70874 154.14037Q767.34937 155.37474 766.59937 156.64037Q765.84937 157.89037 764.115 159.82787Q762.49 161.67162 762.0525 162.26537Q761.615 162.84349 761.365 163.39037L768.0681 163.39037ZM770.53687 161.51537L773.8025 161.03099Q773.9431 162.56224 774.64624 163.37474Q775.34937 164.17162 776.3025 164.17162Q777.33374 164.17162 778.0525 163.21849Q778.77124 162.26537 778.77124 160.57787Q778.77124 159.01537 778.08374 158.12474Q777.39624 157.23412 776.41187 157.23412Q775.77124 157.23412 774.8806 157.53099L775.24 154.18724Q776.53687 154.20287 777.3025 153.48412Q778.0525 152.74974 778.0525 151.40599Q778.0525 150.29662 777.5056 149.67162Q776.97437 149.04662 776.115 149.04662Q775.27124 149.04662 774.64624 149.76537Q774.02124 150.48412 773.91187 151.90599L770.78687 151.26537Q771.27124 148.32787 772.6775 146.99974Q774.08374 145.65599 776.22437 145.65599Q778.6306 145.65599 780.03687 147.37474Q781.45874 149.07787 781.45874 151.15599Q781.45874 152.56224 780.8181 153.70287Q780.1775 154.82787 778.89624 155.67162Q780.3806 156.07787 781.3025 157.42162Q782.24 158.76537 782.24 160.78099Q782.24 163.73412 780.49 165.65599Q778.74 167.57787 776.3181 167.57787Q774.0056 167.57787 772.39624 165.95287Q770.8025 164.32787 770.53687 161.51537ZM785.3806 167.21849L785.3806 163.10912L788.77124 163.10912L788.77124 167.21849L785.3806 167.21849ZM797.365 145.65599Q799.9275 145.65599 801.5056 148.09349Q803.09937 150.53099 803.09937 156.62474Q803.09937 162.70287 801.5056 165.14037Q799.9275 167.57787 797.3806 167.57787Q794.8181 167.57787 793.24 165.17162Q791.66187 162.74974 791.66187 156.57787Q791.66187 150.53099 793.24 148.09349Q794.8181 145.65599 797.365 145.65599ZM797.365 149.06224Q796.365 149.06224 795.77124 150.39037Q795.1931 151.70287 795.1931 156.62474Q795.1931 161.54662 795.77124 162.85912Q796.365 164.17162 797.365 164.17162Q798.3806 164.17162 798.95874 162.85912Q799.5525 161.53099 799.5525 156.62474Q799.5525 151.70287 798.95874 150.39037Q798.3806 149.06224 797.365 149.06224ZM805.6775 151.04662Q805.6775 148.10912 806.72437 146.74974Q807.78687 145.37474 809.53687 145.37474Q811.33374 145.37474 812.3806 146.74974Q813.4431 148.10912 813.4431 151.04662Q813.4431 153.98412 812.3806 155.35912Q811.33374 156.71849 809.59937 156.71849Q807.8025 156.71849 806.74 155.35912Q805.6775 153.99974 805.6775 151.04662ZM808.3181 151.01537Q808.3181 153.06224 808.64624 153.71849Q808.99 154.35912 809.53687 154.35912Q810.09937 154.35912 810.4275 153.71849Q810.77124 153.06224 810.77124 151.01537Q810.77124 148.96849 810.4275 148.32787Q810.09937 147.67162 809.5525 147.67162Q808.99 147.67162 808.64624 148.32787Q808.3181 148.96849 808.3181 151.01537ZM812.115 168.04662L809.615 168.04662L819.0056 145.37474L821.41187 145.37474L812.115 168.04662ZM817.5681 162.40599Q817.5681 159.45287 818.6306 158.09349Q819.6931 156.73412 821.4431 156.73412Q823.22437 156.73412 824.27124 158.09349Q825.33374 159.45287 825.33374 162.40599Q825.33374 165.34349 824.27124 166.71849Q823.22437 168.07787 821.47437 168.07787Q819.6931 168.07787 818.6306 166.71849Q817.5681 165.35912 817.5681 162.40599ZM820.20874 162.39037Q820.20874 164.43724 820.53687 165.07787Q820.865 165.71849 821.41187 165.71849Q821.97437 165.71849 822.3025 165.07787Q822.64624 164.43724 822.64624 162.39037Q822.64624 160.32787 822.3025 159.68724Q821.97437 159.04662 821.4275 159.04662Q820.865 159.04662 820.53687 159.68724Q820.20874 160.32787 820.20874 162.39037Z" fill-rule="nonzero"/><path stroke="#757575" stroke-width="1.0" stroke-linecap="butt" d="M826.615 136.71849L686.87714 136.71849L586.7688 136.71849" fill-rule="nonzero"/><path fill="#9e9e9e" d="M588.7688 136.71849C588.7688 135.61392 587.87335 134.71849 586.7688 134.71849C585.66425 134.71849 584.7688 135.61392 584.7688 136.71849C584.7688 137.82307 585.66425 138.71849 586.7688 138.71849C587.87335 138.71849 588.7688 137.82307 588.7688 136.71849" fill-rule="nonzero"/><path fill="#757575" d="M795.4431 399.39395L795.4431 377.9252L798.89624 377.9252L806.115 392.25333L806.115 377.9252L809.4275 377.9252L809.4275 399.39395L805.84937 399.39395L798.7556 385.39395L798.7556 399.39395L795.4431 399.39395ZM812.59937 391.39395Q812.59937 389.1127 813.5056 387.2377Q814.41187 385.3627 815.8806 384.4252Q817.34937 383.4877 819.1775 383.4877Q822.2556 383.4877 824.0056 385.89395Q825.77124 388.3002 825.77124 391.53458Q825.77124 393.9252 824.84937 395.8627Q823.9275 397.8002 822.4431 398.78458Q820.95874 399.75333 819.1931 399.75333Q816.34937 399.75333 814.47437 397.58145Q812.59937 395.40958 812.59937 391.39395ZM816.0525 391.6127Q816.0525 393.97208 816.97437 395.19083Q817.89624 396.39395 819.20874 396.39395Q820.47437 396.39395 821.3806 395.1752Q822.28687 393.95645 822.28687 391.58145Q822.28687 389.26895 821.365 388.06583Q820.4431 386.84708 819.16187 386.84708Q817.8806 386.84708 816.95874 388.06583Q816.0525 389.26895 816.0525 391.6127Z" fill-rule="nonzero"/><path fill="#9e9e9e" d="M756.53687 432.69083L759.8025 432.20645Q759.9431 433.7377 760.64624 434.5502Q761.34937 435.34708 762.3025 435.34708Q763.33374 435.34708 764.0525 434.39395Q764.77124 433.44083 764.77124 431.75333Q764.77124 430.19083 764.08374 429.3002Q763.39624 428.40958 762.41187 428.40958Q761.77124 428.40958 760.8806 428.70645L761.24 425.3627Q762.53687 425.37833 763.3025 424.65958Q764.0525 423.9252 764.0525 422.58145Q764.0525 421.47208 763.5056 420.84708Q762.97437 420.22208 762.115 420.22208Q761.27124 420.22208 760.64624 420.94083Q760.02124 421.65958 759.91187 423.08145L756.78687 422.44083Q757.27124 419.50333 758.6775 418.1752Q760.08374 416.83145 762.22437 416.83145Q764.6306 416.83145 766.03687 418.5502Q767.45874 420.25333 767.45874 422.33145Q767.45874 423.7377 766.8181 424.87833Q766.1775 426.00333 764.89624 426.84708Q766.3806 427.25333 767.3025 428.59708Q768.24 429.94083 768.24 431.95645Q768.24 434.90958 766.49 436.83145Q764.74 438.75333 762.3181 438.75333Q760.0056 438.75333 758.39624 437.12833Q756.8025 435.50333 756.53687 432.69083ZM770.66187 421.03458L770.66187 417.20645L782.1931 417.20645L782.1931 420.20645Q780.77124 421.90958 779.3181 425.06583Q777.865 428.22208 777.0681 431.84708Q776.27124 435.45645 776.27124 438.39395L773.02124 438.39395Q773.1306 433.81583 774.53687 429.26895Q775.9431 424.70645 778.33374 421.03458L770.66187 421.03458ZM785.3806 438.39395L785.3806 434.28458L788.77124 434.28458L788.77124 438.39395L785.3806 438.39395ZM797.365 416.83145Q799.9275 416.83145 801.5056 419.26895Q803.09937 421.70645 803.09937 427.8002Q803.09937 433.87833 801.5056 436.31583Q799.9275 438.75333 797.3806 438.75333Q794.8181 438.75333 793.24 436.34708Q791.66187 433.9252 791.66187 427.75333Q791.66187 421.70645 793.24 419.26895Q794.8181 416.83145 797.365 416.83145ZM797.365 420.2377Q796.365 420.2377 795.77124 421.56583Q795.1931 422.87833 795.1931 427.8002Q795.1931 432.72208 795.77124 434.03458Q796.365 435.34708 797.365 435.34708Q798.3806 435.34708 798.95874 434.03458Q799.5525 432.70645 799.5525 427.8002Q799.5525 422.87833 798.95874 421.56583Q798.3806 420.2377 797.365 420.2377ZM805.6775 422.22208Q805.6775 419.28458 806.72437 417.9252Q807.78687 416.5502 809.53687 416.5502Q811.33374 416.5502 812.3806 417.9252Q813.4431 419.28458 813.4431 422.22208Q813.4431 425.15958 812.3806 426.53458Q811.33374 427.89395 809.59937 427.89395Q807.8025 427.89395 806.74 426.53458Q805.6775 425.1752 805.6775 422.22208ZM808.3181 422.19083Q808.3181 424.2377 808.64624 424.89395Q808.99 425.53458 809.53687 425.53458Q810.09937 425.53458 810.4275 424.89395Q810.77124 424.2377 810.77124 422.19083Q810.77124 420.14395 810.4275 419.50333Q810.09937 418.84708 809.5525 418.84708Q808.99 418.84708 808.64624 419.50333Q808.3181 420.14395 808.3181 422.19083ZM812.115 439.22208L809.615 439.22208L819.0056 416.5502L821.41187 416.5502L812.115 439.22208ZM817.5681 433.58145Q817.5681 430.62833 818.6306 429.26895Q819.6931 427.90958 821.4431 427.90958Q823.22437 427.90958 824.27124 429.26895Q825.33374 430.62833 825.33374 433.58145Q825.33374 436.51895 824.27124 437.89395Q823.22437 439.25333 821.47437 439.25333Q819.6931 439.25333 818.6306 437.89395Q817.5681 436.53458 817.5681 433.58145ZM820.20874 433.56583Q820.20874 435.6127 820.53687 436.25333Q820.865 436.89395 821.41187 436.89395Q821.97437 436.89395 822.3025 436.25333Q822.64624 435.6127 822.64624 433.56583Q822.64624 431.50333 822.3025 430.8627Q821.97437 430.22208 821.4275 430.22208Q820.865 430.22208 820.53687 430.8627Q820.20874 431.50333 820.20874 433.56583Z" fill-rule="nonzero"/><path stroke="#757575" stroke-width="1.0" stroke-linecap="butt" d="M826.615 407.89395L686.87714 407.89395L550.14935 407.89395" fill-rule="nonzero"/><path fill="#9e9e9e" d="M552.14935 407.89395C552.14935 406.7894 551.2539 405.89395 550.14935 405.89395C549.04474 405.89395 548.14935 406.7894 548.14935 407.89395C548.14935 408.99854 549.04474 409.89395 550.14935 409.89395C551.2539 409.89395 552.14935 408.99854 552.14935 407.89395" fill-rule="nonzero"/></svg>